<mxfile host="app.diagrams.net" modified="2023-09-19T21:18:50.445Z" agent="Mozilla/5.0 (Macintosh; Intel Mac OS X 10_15_7) AppleWebKit/605.1.15 (KHTML, like Gecko) Version/15.4 Safari/605.1.15" etag="mnGEzbmoLKW0Y0cLHd92" version="21.7.5" type="github">
  <diagram id="C5RBs43oDa-KdzZeNtuy" name="Page-1">
    <mxGraphModel dx="873" dy="661" grid="1" gridSize="10" guides="1" tooltips="1" connect="1" arrows="1" fold="1" page="1" pageScale="1" pageWidth="827" pageHeight="1169" math="0" shadow="0">
      <root>
        <mxCell id="WIyWlLk6GJQsqaUBKTNV-0" />
        <mxCell id="WIyWlLk6GJQsqaUBKTNV-1" parent="WIyWlLk6GJQsqaUBKTNV-0" />
        <mxCell id="VLkjjHOsaNSiTmbBTy0C-5" style="edgeStyle=orthogonalEdgeStyle;rounded=0;orthogonalLoop=1;jettySize=auto;html=1;entryX=0;entryY=0.5;entryDx=0;entryDy=0;exitX=0.5;exitY=1;exitDx=0;exitDy=0;startArrow=classic;startFill=1;endArrow=none;endFill=0;" parent="WIyWlLk6GJQsqaUBKTNV-1" source="VLkjjHOsaNSiTmbBTy0C-4" target="WIyWlLk6GJQsqaUBKTNV-3" edge="1">
          <mxGeometry relative="1" as="geometry">
            <mxPoint x="320" y="331.25" as="sourcePoint" />
            <mxPoint x="440" y="332.25" as="targetPoint" />
          </mxGeometry>
        </mxCell>
        <mxCell id="9-DIKQarRm8jcJujgLMe-5" value="Extract" style="edgeLabel;html=1;align=left;verticalAlign=middle;resizable=0;points=[];labelPosition=right;verticalLabelPosition=middle;" vertex="1" connectable="0" parent="VLkjjHOsaNSiTmbBTy0C-5">
          <mxGeometry x="-0.1333" relative="1" as="geometry">
            <mxPoint as="offset" />
          </mxGeometry>
        </mxCell>
        <mxCell id="9-DIKQarRm8jcJujgLMe-18" value="" style="edgeStyle=orthogonalEdgeStyle;rounded=0;orthogonalLoop=1;jettySize=auto;html=1;" edge="1" parent="WIyWlLk6GJQsqaUBKTNV-1" source="WIyWlLk6GJQsqaUBKTNV-3" target="VLkjjHOsaNSiTmbBTy0C-31">
          <mxGeometry relative="1" as="geometry" />
        </mxCell>
        <mxCell id="WIyWlLk6GJQsqaUBKTNV-3" value="GLM" style="rounded=1;whiteSpace=wrap;html=1;fontSize=12;glass=0;strokeWidth=1;shadow=0;" parent="WIyWlLk6GJQsqaUBKTNV-1" vertex="1">
          <mxGeometry x="400" y="279" width="80" height="40" as="geometry" />
        </mxCell>
        <mxCell id="VLkjjHOsaNSiTmbBTy0C-1" value="" style="edgeStyle=orthogonalEdgeStyle;rounded=0;orthogonalLoop=1;jettySize=auto;html=1;endArrow=classic;endFill=1;startArrow=none;startFill=0;" parent="WIyWlLk6GJQsqaUBKTNV-1" source="VLkjjHOsaNSiTmbBTy0C-0" target="WIyWlLk6GJQsqaUBKTNV-3" edge="1">
          <mxGeometry relative="1" as="geometry" />
        </mxCell>
        <mxCell id="9-DIKQarRm8jcJujgLMe-4" value="Train" style="edgeLabel;html=1;align=left;verticalAlign=middle;resizable=0;points=[];labelPosition=right;verticalLabelPosition=middle;" vertex="1" connectable="0" parent="VLkjjHOsaNSiTmbBTy0C-1">
          <mxGeometry x="0.3878" relative="1" as="geometry">
            <mxPoint y="-7" as="offset" />
          </mxGeometry>
        </mxCell>
        <mxCell id="VLkjjHOsaNSiTmbBTy0C-0" value="Preprocessed&lt;br&gt;dataset" style="rounded=0;whiteSpace=wrap;html=1;gradientDirection=west;fillColor=#dae8fc;strokeColor=#6c8ebf;gradientColor=#FFCE9F;" parent="WIyWlLk6GJQsqaUBKTNV-1" vertex="1">
          <mxGeometry x="400" y="200" width="80" height="40" as="geometry" />
        </mxCell>
        <mxCell id="9-DIKQarRm8jcJujgLMe-19" style="edgeStyle=orthogonalEdgeStyle;rounded=0;orthogonalLoop=1;jettySize=auto;html=1;exitX=0.5;exitY=0;exitDx=0;exitDy=0;entryX=0;entryY=0.5;entryDx=0;entryDy=0;" edge="1" parent="WIyWlLk6GJQsqaUBKTNV-1" source="VLkjjHOsaNSiTmbBTy0C-4" target="WIyWlLk6GJQsqaUBKTNV-3">
          <mxGeometry relative="1" as="geometry">
            <Array as="points">
              <mxPoint x="310" y="259" />
              <mxPoint x="400" y="259" />
            </Array>
          </mxGeometry>
        </mxCell>
        <mxCell id="VLkjjHOsaNSiTmbBTy0C-4" value="GOBI" style="rounded=1;whiteSpace=wrap;html=1;fontSize=12;glass=0;strokeWidth=1;shadow=0;" parent="WIyWlLk6GJQsqaUBKTNV-1" vertex="1">
          <mxGeometry x="270" y="279" width="80" height="40" as="geometry" />
        </mxCell>
        <mxCell id="9-DIKQarRm8jcJujgLMe-2" style="edgeStyle=orthogonalEdgeStyle;rounded=0;orthogonalLoop=1;jettySize=auto;html=1;entryX=0.5;entryY=0;entryDx=0;entryDy=0;endArrow=none;endFill=0;startArrow=classic;startFill=1;" edge="1" parent="WIyWlLk6GJQsqaUBKTNV-1" source="9-DIKQarRm8jcJujgLMe-0" target="VLkjjHOsaNSiTmbBTy0C-42">
          <mxGeometry relative="1" as="geometry">
            <mxPoint x="290" y="170" as="sourcePoint" />
            <Array as="points">
              <mxPoint x="325" y="170" />
              <mxPoint x="625" y="170" />
            </Array>
          </mxGeometry>
        </mxCell>
        <mxCell id="9-DIKQarRm8jcJujgLMe-11" value="Inject" style="edgeLabel;html=1;align=center;verticalAlign=middle;resizable=0;points=[];" vertex="1" connectable="0" parent="9-DIKQarRm8jcJujgLMe-2">
          <mxGeometry x="-0.0629" y="2" relative="1" as="geometry">
            <mxPoint as="offset" />
          </mxGeometry>
        </mxCell>
        <mxCell id="9-DIKQarRm8jcJujgLMe-10" style="edgeStyle=orthogonalEdgeStyle;rounded=0;orthogonalLoop=1;jettySize=auto;html=1;exitX=1;exitY=0.5;exitDx=0;exitDy=0;entryX=0;entryY=0.5;entryDx=0;entryDy=0;" edge="1" parent="WIyWlLk6GJQsqaUBKTNV-1" source="9-DIKQarRm8jcJujgLMe-0" target="VLkjjHOsaNSiTmbBTy0C-0">
          <mxGeometry relative="1" as="geometry" />
        </mxCell>
        <mxCell id="9-DIKQarRm8jcJujgLMe-0" value="Dataset" style="rounded=0;whiteSpace=wrap;html=1;dashed=1;fillColor=#ffe6cc;strokeColor=#d79b00;" vertex="1" parent="WIyWlLk6GJQsqaUBKTNV-1">
          <mxGeometry x="280" y="200" width="80" height="40" as="geometry" />
        </mxCell>
        <mxCell id="VLkjjHOsaNSiTmbBTy0C-42" value="" style="rounded=0;whiteSpace=wrap;html=1;fontFamily=Helvetica;fontSize=11;fontColor=default;container=1;dashed=1;" parent="WIyWlLk6GJQsqaUBKTNV-1" vertex="1">
          <mxGeometry x="520" y="200" width="210" height="150" as="geometry" />
        </mxCell>
        <mxCell id="VLkjjHOsaNSiTmbBTy0C-7" value="" style="strokeWidth=2;dashed=0;align=center;fontSize=8;shape=rect;fillColor=#dae8fc;strokeColor=#6c8ebf;" parent="WIyWlLk6GJQsqaUBKTNV-1" vertex="1">
          <mxGeometry x="586" y="226.25" width="26" height="16.875" as="geometry" />
        </mxCell>
        <mxCell id="VLkjjHOsaNSiTmbBTy0C-8" value="" style="strokeWidth=2;dashed=0;align=center;fontSize=8;shape=rect;fillColor=#dae8fc;strokeColor=#6c8ebf;" parent="WIyWlLk6GJQsqaUBKTNV-1" vertex="1">
          <mxGeometry x="539" y="243.125" width="26" height="16.875" as="geometry" />
        </mxCell>
        <mxCell id="VLkjjHOsaNSiTmbBTy0C-9" value="" style="strokeWidth=2;dashed=0;align=center;fontSize=8;shape=rect;fillColor=#dae8fc;strokeColor=#6c8ebf;" parent="WIyWlLk6GJQsqaUBKTNV-1" vertex="1">
          <mxGeometry x="633" y="243.125" width="26" height="16.875" as="geometry" />
        </mxCell>
        <mxCell id="VLkjjHOsaNSiTmbBTy0C-10" value="" style="strokeWidth=2;dashed=0;align=center;fontSize=8;shape=rect;fillColor=#dae8fc;strokeColor=#6c8ebf;" parent="WIyWlLk6GJQsqaUBKTNV-1" vertex="1">
          <mxGeometry x="539" y="276.875" width="26" height="16.875" as="geometry" />
        </mxCell>
        <mxCell id="VLkjjHOsaNSiTmbBTy0C-11" value="" style="strokeWidth=2;dashed=0;align=center;fontSize=8;shape=rect;fillColor=#dae8fc;strokeColor=#6c8ebf;" parent="WIyWlLk6GJQsqaUBKTNV-1" vertex="1">
          <mxGeometry x="633" y="276.875" width="26" height="16.875" as="geometry" />
        </mxCell>
        <mxCell id="VLkjjHOsaNSiTmbBTy0C-12" value="" style="strokeWidth=2;dashed=0;align=center;fontSize=8;shape=rect;fillColor=#dae8fc;strokeColor=#6c8ebf;" parent="WIyWlLk6GJQsqaUBKTNV-1" vertex="1">
          <mxGeometry x="689" y="260" width="26" height="16.875" as="geometry" />
        </mxCell>
        <mxCell id="VLkjjHOsaNSiTmbBTy0C-30" style="edgeStyle=none;rounded=0;orthogonalLoop=1;jettySize=auto;html=1;exitX=1;exitY=0.25;exitDx=0;exitDy=0;entryX=0.75;entryY=0;entryDx=0;entryDy=0;endArrow=none;endFill=0;strokeWidth=2;fillColor=#dae8fc;strokeColor=#6c8ebf;" parent="WIyWlLk6GJQsqaUBKTNV-1" source="VLkjjHOsaNSiTmbBTy0C-9" target="VLkjjHOsaNSiTmbBTy0C-12" edge="1">
          <mxGeometry relative="1" as="geometry" />
        </mxCell>
        <mxCell id="VLkjjHOsaNSiTmbBTy0C-13" value="" style="strokeWidth=2;dashed=0;align=center;fontSize=8;shape=rect;fillColor=#dae8fc;strokeColor=#6c8ebf;" parent="WIyWlLk6GJQsqaUBKTNV-1" vertex="1">
          <mxGeometry x="586" y="260" width="26" height="16.875" as="geometry" />
        </mxCell>
        <mxCell id="VLkjjHOsaNSiTmbBTy0C-14" value="" style="edgeStyle=none;endArrow=none;dashed=0;html=1;strokeWidth=2;rounded=0;fillColor=#dae8fc;strokeColor=#6c8ebf;" parent="WIyWlLk6GJQsqaUBKTNV-1" source="VLkjjHOsaNSiTmbBTy0C-13" target="VLkjjHOsaNSiTmbBTy0C-7" edge="1">
          <mxGeometry relative="1" as="geometry" />
        </mxCell>
        <mxCell id="VLkjjHOsaNSiTmbBTy0C-15" value="" style="edgeStyle=none;endArrow=none;dashed=0;html=1;strokeWidth=2;rounded=0;fillColor=#dae8fc;strokeColor=#6c8ebf;" parent="WIyWlLk6GJQsqaUBKTNV-1" source="VLkjjHOsaNSiTmbBTy0C-13" target="VLkjjHOsaNSiTmbBTy0C-8" edge="1">
          <mxGeometry relative="1" as="geometry" />
        </mxCell>
        <mxCell id="VLkjjHOsaNSiTmbBTy0C-16" value="" style="edgeStyle=none;endArrow=none;dashed=0;html=1;strokeWidth=2;rounded=0;fillColor=#dae8fc;strokeColor=#6c8ebf;" parent="WIyWlLk6GJQsqaUBKTNV-1" source="VLkjjHOsaNSiTmbBTy0C-13" target="VLkjjHOsaNSiTmbBTy0C-9" edge="1">
          <mxGeometry relative="1" as="geometry" />
        </mxCell>
        <mxCell id="VLkjjHOsaNSiTmbBTy0C-17" value="" style="edgeStyle=none;endArrow=none;dashed=0;html=1;strokeWidth=2;rounded=0;fillColor=#dae8fc;strokeColor=#6c8ebf;" parent="WIyWlLk6GJQsqaUBKTNV-1" source="VLkjjHOsaNSiTmbBTy0C-13" target="VLkjjHOsaNSiTmbBTy0C-10" edge="1">
          <mxGeometry relative="1" as="geometry" />
        </mxCell>
        <mxCell id="VLkjjHOsaNSiTmbBTy0C-18" value="" style="edgeStyle=none;endArrow=none;dashed=0;html=1;strokeWidth=2;rounded=0;fillColor=#dae8fc;strokeColor=#6c8ebf;" parent="WIyWlLk6GJQsqaUBKTNV-1" source="VLkjjHOsaNSiTmbBTy0C-13" target="VLkjjHOsaNSiTmbBTy0C-11" edge="1">
          <mxGeometry relative="1" as="geometry" />
        </mxCell>
        <mxCell id="VLkjjHOsaNSiTmbBTy0C-19" value="" style="edgeStyle=none;endArrow=none;dashed=0;html=1;strokeWidth=2;rounded=0;fillColor=#dae8fc;strokeColor=#6c8ebf;" parent="WIyWlLk6GJQsqaUBKTNV-1" source="VLkjjHOsaNSiTmbBTy0C-13" target="VLkjjHOsaNSiTmbBTy0C-12" edge="1">
          <mxGeometry relative="1" as="geometry" />
        </mxCell>
        <mxCell id="VLkjjHOsaNSiTmbBTy0C-23" value="" style="edgeStyle=none;endArrow=none;dashed=0;html=1;strokeWidth=2;rounded=0;entryX=0.5;entryY=1;entryDx=0;entryDy=0;fillColor=#dae8fc;strokeColor=#6c8ebf;" parent="WIyWlLk6GJQsqaUBKTNV-1" target="VLkjjHOsaNSiTmbBTy0C-12" edge="1">
          <mxGeometry relative="1" as="geometry">
            <mxPoint x="660" y="286.25" as="sourcePoint" />
            <mxPoint x="737" y="286.25" as="targetPoint" />
          </mxGeometry>
        </mxCell>
        <mxCell id="VLkjjHOsaNSiTmbBTy0C-31" value="" style="strokeWidth=2;dashed=0;align=center;fontSize=8;shape=rect;fillColor=#dae8fc;strokeColor=#6c8ebf;" parent="WIyWlLk6GJQsqaUBKTNV-1" vertex="1">
          <mxGeometry x="589" y="313.4375" width="26" height="16.875" as="geometry" />
        </mxCell>
        <mxCell id="VLkjjHOsaNSiTmbBTy0C-39" style="edgeStyle=none;shape=connector;rounded=0;orthogonalLoop=1;jettySize=auto;html=1;exitX=0;exitY=0.75;exitDx=0;exitDy=0;entryX=1;entryY=0;entryDx=0;entryDy=0;labelBackgroundColor=default;strokeColor=#6c8ebf;strokeWidth=2;fontFamily=Helvetica;fontSize=11;fontColor=default;endArrow=none;endFill=0;fillColor=#dae8fc;" parent="WIyWlLk6GJQsqaUBKTNV-1" source="VLkjjHOsaNSiTmbBTy0C-11" target="VLkjjHOsaNSiTmbBTy0C-31" edge="1">
          <mxGeometry relative="1" as="geometry" />
        </mxCell>
        <mxCell id="VLkjjHOsaNSiTmbBTy0C-37" style="edgeStyle=none;shape=connector;rounded=0;orthogonalLoop=1;jettySize=auto;html=1;exitX=0.5;exitY=0;exitDx=0;exitDy=0;labelBackgroundColor=default;strokeColor=#6c8ebf;strokeWidth=2;fontFamily=Helvetica;fontSize=11;fontColor=default;endArrow=none;endFill=0;fillColor=#dae8fc;" parent="WIyWlLk6GJQsqaUBKTNV-1" source="VLkjjHOsaNSiTmbBTy0C-33" edge="1">
          <mxGeometry relative="1" as="geometry">
            <mxPoint x="659" y="284.375" as="targetPoint" />
          </mxGeometry>
        </mxCell>
        <mxCell id="VLkjjHOsaNSiTmbBTy0C-33" value="" style="strokeWidth=2;dashed=0;align=center;fontSize=8;shape=rect;fillColor=#dae8fc;strokeColor=#6c8ebf;" parent="WIyWlLk6GJQsqaUBKTNV-1" vertex="1">
          <mxGeometry x="676" y="314.375" width="26" height="16.875" as="geometry" />
        </mxCell>
        <mxCell id="VLkjjHOsaNSiTmbBTy0C-40" value="&lt;b&gt;&lt;font style=&quot;font-size: 12px;&quot;&gt;KG&lt;/font&gt;&lt;/b&gt;" style="text;html=1;strokeColor=none;fillColor=none;align=center;verticalAlign=middle;whiteSpace=wrap;rounded=0;fontSize=11;fontFamily=Helvetica;fontColor=default;" parent="WIyWlLk6GJQsqaUBKTNV-1" vertex="1">
          <mxGeometry x="616" y="209.375" width="60" height="28.125" as="geometry" />
        </mxCell>
        <mxCell id="VLkjjHOsaNSiTmbBTy0C-36" style="edgeStyle=none;shape=connector;rounded=0;orthogonalLoop=1;jettySize=auto;html=1;exitX=0.5;exitY=1;exitDx=0;exitDy=0;entryX=0.5;entryY=0;entryDx=0;entryDy=0;labelBackgroundColor=default;strokeColor=#6c8ebf;strokeWidth=2;fontFamily=Helvetica;fontSize=11;fontColor=default;endArrow=none;endFill=0;fillColor=#dae8fc;" parent="WIyWlLk6GJQsqaUBKTNV-1" source="VLkjjHOsaNSiTmbBTy0C-12" target="VLkjjHOsaNSiTmbBTy0C-33" edge="1">
          <mxGeometry relative="1" as="geometry" />
        </mxCell>
      </root>
    </mxGraphModel>
  </diagram>
</mxfile>
